<?xml version="1.0" encoding="UTF-8"?>
<svg xmlns="http://www.w3.org/2000/svg" version="1.1" viewBox="0 0 473.6 73.41">
  <defs>
    <style>
      .cls-1 {
        fill: #fff;
      }
    </style>
  </defs>
  <!-- Generator: Adobe Illustrator 28.7.3, SVG Export Plug-In . SVG Version: 1.2.0 Build 164)  -->
  <g>
    <g id="Warstwa_1">
      <g id="Layer_1">
        <g>
          <path class="cls-1" d="M.05,50.3c-.13.12.03.32.18.21v-.37c-.06.05-.12.1-.18.16Z"/>
          <path class="cls-1" d="M471.96,50.45c-3.15-2.3-6.55-4.22-10.94-5.84-8.53-3.13-17.98-3.95-26.81-2.8,1.39,6.05-.13,11.92-4.04,16.74-3.46,4.27-8.16,7.03-12.5,8.01-3.4.75-7.22.47-9.39-2.24-2.85-3.54-2.71-11.61,5.02-17.5,4.91-3.74,11.46-5.86,17.65-6.82-4.53-12.82-16.31-20.64-29.97-23.31-17.95-3.51-32.22,1.92-58.18,10.65-16.59,5.6-39.69,13.02-61.5,16.04-11.06,1.5-26.69,2.45-36.31-3.1.36.96.55,2,.55,3.09,0,4.93-4.01,8.94-8.94,8.94s-8.94-4.01-8.94-8.94c0-1.08.19-2.12.55-3.09-9.63,5.54-25.25,4.6-36.31,3.1-21.81-3.02-44.91-10.45-61.5-16.04-25.95-8.72-40.23-14.16-58.18-10.65-13.65,2.67-25.44,10.5-29.97,23.31,6.19.96,12.75,3.08,17.65,6.82,7.73,5.89,7.87,13.96,5.02,17.5-2.17,2.72-5.99,3-9.39,2.24-4.34-.99-9.04-3.74-12.5-8.01-3.91-4.83-5.44-10.69-4.04-16.74-8.82-1.15-18.28-.32-26.81,2.8-4.96,1.83-8.66,4.04-12.15,6.76v22.04h473.38v-21.18c-.64-.46-1.12-1.08-1.44-1.78h0Z"/>
          <path class="cls-1" d="M39.19,40.96c-1.39,6.05.13,11.92,4.04,16.74,3.46,4.27,8.16,7.03,12.5,8.01,3.4.75,7.22.47,9.39-2.24,2.86-3.54,2.71-11.61-5.02-17.5-4.91-3.74-11.46-5.86-17.65-6.82,4.53-12.82,16.31-20.64,29.97-23.31,17.95-3.51,32.22,1.92,58.18,10.65,16.59,5.6,39.69,13.02,61.5,16.04,11.06,1.5,26.69,2.45,36.31-3.1-.36.96-.55,2-.55,3.09,0,4.93,4.01,8.94,8.94,8.94s8.94-4.01,8.94-8.94c0-1.08-.19-2.12-.55-3.09,9.63,5.54,25.25,4.6,36.31,3.1,21.81-3.02,44.91-10.45,61.5-16.04,25.95-8.72,40.23-14.16,58.18-10.65,13.65,2.67,25.44,10.5,29.97,23.31-6.19.96-12.75,3.08-17.65,6.82-7.73,5.89-7.87,13.96-5.02,17.5,2.17,2.72,5.99,3,9.39,2.24,4.34-.99,9.04-3.74,12.5-8.01,3.91-4.83,5.44-10.69,4.04-16.74,8.82-1.15,18.28-.32,26.81,2.8,4.96,1.83,8.66,4.04,12.15,6.76.15.11.31-.09.18-.21-3.35-2.99-6.93-5.45-11.92-7.58-7.9-3.4-17.83-4.99-27.84-3.92-4-11.68-14.86-21.56-32.38-24.29-17.96-2.79-31.33,2.29-58.92,10.34-24.57,7.12-44.47,12.93-61.3,15.61-10.98,1.78-26.44,3.31-36.32-1.78-1.32-2.77-4.03-4.76-7.22-5.06,1.5-6.09,3.85-13.64,9.88-14.84,1.27-.31,3.36-.19,4.99.58,2.81,1.32,3.77,4.72,3.42,7.21-.46,3.51-3.53,5.01-5.95,4.82-3.72-.25-4.21-3.95-3.68-5.29.64-1.63,1.73-2.02,3-1.98-.85-.62-3.23-.03-4.09,2.41-.74,2.12.22,6.12,4.5,6.81,3.63.65,7.97-1.52,8.83-6.36.73-3.88-1.01-8.32-4.83-10.1-2.84-1.35-6.11-1.1-8.49-.03-2.3-3.16-5.77-12.26-7.12-15.94-.22-.62-.76-.92-1.31-.92s-1.08.3-1.31.91c-1.35,3.68-4.81,12.78-7.11,15.94-2.38-1.07-5.66-1.32-8.49.03-3.82,1.78-5.56,6.22-4.83,10.1.86,4.84,5.19,7.01,8.83,6.36,4.28-.69,5.24-4.69,4.5-6.81-.85-2.44-3.24-3.02-4.09-2.41,1.27-.03,2.37.36,3,1.98.52,1.33.04,5.04-3.68,5.29-2.42.19-5.5-1.31-5.95-4.82-.35-2.5.6-5.89,3.42-7.21,1.63-.77,3.72-.9,4.99-.58,6.03,1.21,8.38,8.76,9.88,14.84-3.19.3-5.9,2.29-7.22,5.06-9.88,5.09-25.35,3.56-36.32,1.78-16.83-2.67-36.73-8.49-61.3-15.61-27.59-8.05-40.96-13.13-58.92-10.34-17.51,2.73-28.38,12.61-32.38,24.29-10.01-1.07-19.93.52-27.84,3.92-4.9,2.09-8.44,4.5-11.74,7.42v.37c3.49-2.71,7.19-4.93,12.15-6.76,8.53-3.13,17.98-3.95,26.81-2.8h-.01ZM428.14,55.87c-2.66,3.22-6.77,6.01-10.91,6.94-9.01,1.99-8.44-6.32-5.94-10.42,3.83-6.34,13.17-9.72,20.5-11.03,1.2,5.36-.23,10.4-3.65,14.51ZM234.77,24.68c-1.1-3.19-2.91-6.03-5.91-7.59.95-.73,2.19-1.93,3.83-4.33,1.47-2.12,3.09-5.29,4.11-7.65,1.02,2.36,2.64,5.53,4.11,7.65,1.63,2.4,2.88,3.6,3.83,4.33-2.99,1.56-4.8,4.4-5.91,7.59-.97,2.83-1.4,5.97-1.49,8.92-.2,0-.37-.02-.54-.02s-.34,0-.54.02c-.1-2.95-.52-6.09-1.49-8.92ZM236.8,36.36c3.4,0,6.16,2.76,6.16,6.16s-2.77,6.17-6.16,6.17-6.16-2.77-6.16-6.17,2.77-6.16,6.16-6.16ZM41.82,41.36c7.32,1.31,16.67,4.69,20.5,11.03,2.5,4.1,3.07,12.42-5.94,10.42-4.14-.93-8.26-3.72-10.91-6.94-3.41-4.11-4.85-9.15-3.65-14.51Z"/>
        </g>
      </g>
    </g>
  </g>
</svg>